<svg xmlns="http://www.w3.org/2000/svg" viewBox="0 0 109 17"><defs><style>.cls-1{fill:none;opacity:0.5;}.cls-2{fill:#0067c5;fill-rule:evenodd;}</style></defs><title>Asset 1Svg</title><g id="Layer_2" data-name="Layer 2"><g id="Layer_1-2" data-name="Layer 1"><rect class="cls-1" width="109" height="17"/><path class="cls-2" d="M48.68,6.59a.41.41,0,0,0-.4-.41H46.71a.41.41,0,0,0-.4.41V7.72h2.37ZM33,5.78c-.63,0-1.23,0-1.73,0h-3V16.35h2.38V12.81h.64c.5,0,1.1,0,1.73,0,2.19-.09,4.75-.56,4.75-3V8.73C37.74,6.33,35.2,5.86,33,5.78Zm2.36,4c0,.78-1.06,1-2.36,1.1-.56,0-1.16,0-1.73,0h-.64V7.68h.64c.57,0,1.17,0,1.73,0,1.3.08,2.36.32,2.36,1.1ZM104,8.3c-1.5,0-3,.24-3.88.31v1.81A28.49,28.49,0,0,1,104,10c1.17,0,2.09.19,2.09.8V11a.89.89,0,0,0-.23,0c-.63.07-1.24.16-1.86.24l-1.23.17c-2,.28-3.18,1.07-3.18,2.54s1.21,2.58,3.23,2.58h2.68c2,0,2.93-.81,3-2.24V10.79C108.5,8.72,106.28,8.28,104,8.3Zm2.09,5.64a.73.73,0,0,1-.78.77h-2.67a.74.74,0,0,1-.73-.74.83.83,0,0,1,.73-.78c.23,0,.76-.13,1.36-.21l1.79-.24a1.33,1.33,0,0,0,.3-.06ZM12.33,10.32h0a.47.47,0,0,0,0-.16.38.38,0,1,0-.75,0,.47.47,0,0,0,0,.16h0C10.94,9.08,6.79,7,7.05,9.5c.1.88.61,2.13,1.59,2.17-1.57,1.4.77,3.95,2.23,2.49l.86-.85a.09.09,0,0,0,0,0,.26.26,0,1,0,.51,0s0,0,0,0l.86.85c1.46,1.46,3.8-1.09,2.23-2.49,1,0,1.49-1.29,1.58-2.17C17.15,7,13,9.08,12.33,10.32ZM12,.5A11.69,11.69,0,0,0,1.29,16.41C4,14.62,3.06,15.13,3.06,12.17A9,9,0,0,1,12,3.1a9,9,0,0,1,8.91,9.07c0,3-.9,2.45,1.78,4.24A11.71,11.71,0,0,0,12,.5ZM92.36,11.17v5.18h2.39V11.22c0-1.14,2.18-1.14,4.33-.88V8.53C96.39,8.19,92.36,8,92.36,11.17Zm-53.84,0v5.18H40.9V11.22c0-1.14,2.18-1.14,4.33-.88V8.53C42.54,8.19,38.52,8,38.52,11.17Zm48.59,2.28,1.23-.17c2-.27,3.18-1,3.18-2.47s-1-2.46-3-2.46H85.67c-2,0-3,1-3,2.46v3.07c0,2.21,2.22,2.67,4.47,2.62A29,29,0,0,0,91,16.05V14.24a27.51,27.51,0,0,1-3.87.47c-1.17,0-2.09-.19-2.09-.88v-.1ZM85,10.81a.67.67,0,0,1,.69-.67h2.77a.68.68,0,0,1,.73.67c0,.4-.33.6-.73.67l-1.37.2c-.7.1-1.4.2-2.09.28Zm-5.71-1L77.06,14,74.82,9.85c-.72-1.33-1.09-1.33-3.26-1.33l4.49,7.83h2l4.49-7.83C80.39,8.52,80,8.52,79.31,9.85ZM57.94,8.35A7.51,7.51,0,0,0,54.51,9a4.66,4.66,0,0,0-3-.65,8.27,8.27,0,0,0-2.84.46V8.53H46.31v7.82h2.36v-6c1.9-.27,4-.48,4,.62v5.41h2.38V10.76a2.81,2.81,0,0,0,0-.43c1.92-.27,4.09-.49,4.09.61v5.41h2.38V10.76C61.52,8.74,59.48,8.35,57.94,8.35Zm9,0c-1.5,0-3,.24-3.88.31v1.81A28.49,28.49,0,0,1,67,10c1.16,0,2.08.19,2.08.8V11a.89.89,0,0,0-.23,0c-.62.07-1.24.16-1.85.24l-1.24.17c-2,.28-3.18,1.07-3.18,2.54s1.22,2.58,3.23,2.58h2.68c2,0,2.93-.81,3-2.24V10.79C71.45,8.72,69.22,8.28,67,8.3Zm2.08,5.64a.72.72,0,0,1-.77.77H65.61a.73.73,0,0,1-.72-.74.82.82,0,0,1,.72-.78c.23,0,.76-.13,1.37-.21s1.26-.17,1.79-.24a1.36,1.36,0,0,0,.29-.06Z"/></g></g></svg>