<svg xmlns="http://www.w3.org/2000/svg" viewBox="0 0 225 225"><defs><style>.cls-1{fill:#1d317d;}.cls-2{fill:#fff;}.cls-3{opacity:0.3;}</style></defs><title>Vendas_pr@1</title><g id="Layer_2" data-name="Layer 2"><g id="Layer_1-2" data-name="Layer 1"><circle class="cls-1" cx="112.5" cy="112.5" r="112.5"/><path class="cls-2" d="M151.17,42.19H73.83A17.58,17.58,0,0,0,56.25,59.77V165.23a17.58,17.58,0,0,0,17.58,17.58h77.34a17.58,17.58,0,0,0,17.58-17.58V59.77A17.58,17.58,0,0,0,151.17,42.19Zm5.28,123a5.29,5.29,0,0,1-5.28,5.28H73.83a5.29,5.29,0,0,1-5.28-5.28V59.77a5.29,5.29,0,0,1,5.28-5.28h77.34a5.29,5.29,0,0,1,5.28,5.28Z"/><path class="cls-2" d="M132.71,63.28a6.16,6.16,0,0,0-6.15,6.15v65a6.16,6.16,0,0,0,12.31,0v-65A6.16,6.16,0,0,0,132.71,63.28Z"/><path class="cls-2" d="M92.29,107.23a6.15,6.15,0,0,0-6.16,6.15v21.09a6.16,6.16,0,0,0,12.31,0V113.38A6.15,6.15,0,0,0,92.29,107.23Z"/><path class="cls-2" d="M112.5,140.62a6.15,6.15,0,0,0,6.15-6.15V99.32a6.15,6.15,0,1,0-12.3,0v35.15A6.15,6.15,0,0,0,112.5,140.62Z"/><circle class="cls-2" cx="112.5" cy="159.96" r="7.03"/><circle class="cls-3" cx="112.5" cy="112.5" r="112.5"/></g></g></svg>