<svg id="Fax" xmlns="http://www.w3.org/2000/svg" width="50" height="50" viewBox="0 0 50 50">
  <defs>
    <style>
      .cls-1 {
        fill: #393939;
        fill-rule: evenodd;
      }
    </style>
  </defs>
  <path class="cls-1" d="M41,15H36V5H14V15H9a4.011,4.011,0,0,0-4,4V35a4.012,4.012,0,0,0,4,4h5v6H36V39h5a4.012,4.012,0,0,0,4-4V19A4.011,4.011,0,0,0,41,15ZM16,7H34v8H16V7ZM34,43H16V29H34V43Zm9-8a2,2,0,0,1-2,2H36V27H14V37H9a2,2,0,0,1-2-2V19a2,2,0,0,1,2-2H41a2,2,0,0,1,2,2V35ZM11,19a2,2,0,1,0,2,2A2,2,0,0,0,11,19Zm6,0a2,2,0,1,0,2,2A2,2,0,0,0,17,19Z"/>
</svg>
