<svg id="_2_Gráfico" data-name="2_Gráfico" xmlns="http://www.w3.org/2000/svg" width="50" height="50" viewBox="0 0 50 50">
  <defs>
    <style>
      .cls-1 {
        fill: #596278;
        fill-rule: evenodd;
      }
    </style>
  </defs>
  <g id="_1_48x48" data-name="1_48x48">
    <path class="cls-1" d="M41,33a7.972,7.972,0,0,0-6.027,2.75L16.82,26.674a7.9,7.9,0,0,0,0-3.35L34.973,14.25A7.993,7.993,0,1,0,33,9a7.889,7.889,0,0,0,.18,1.674L15.027,19.75a8,8,0,1,0,0,10.5L33.18,39.324A7.908,7.908,0,0,0,33,41,8,8,0,1,0,41,33Z"/>
  </g>
</svg>
