<svg id="Tel_36x40" xmlns="http://www.w3.org/2000/svg" width="50" height="50" viewBox="0 0 50 50">
  <defs>
    <style>
      .cls-1, .cls-2 {
        fill: #393939;
      }

      .cls-1 {
        fill-rule: evenodd;
      }

      .cls-2 {
        font-size: 24px;
        font-family: "Open Sans Condensed";
        font-weight: 700;
      }
    </style>
  </defs>
  <path id="ICON_TELEF_copy" data-name="ICON TELEF copy" class="cls-1" d="M15.219,5a8.821,8.821,0,0,0-4.342,1.288L10.571,6.5C9.323,7.35,7,8.934,7,12.254c0,4.216,3.176,10.48,9.707,19.152C23.69,40.68,32,45,35.425,45c3.135,0,6.168-3.8,7.147-5.648a2.882,2.882,0,0,0-.5-3.667S37.7,32.794,35.759,31.5a4.025,4.025,0,0,0-2.245-.75,2.764,2.764,0,0,0-1.811.629,12.44,12.44,0,0,1-1.169,1.072,1.778,1.778,0,0,1-1.154.414,2.519,2.519,0,0,1-1.674-.717c-1.154-1.067-7.547-8.892-9.549-11.554a1.94,1.94,0,0,1-.48-1.484c0.161-.955,1.307-1.74,1.925-2.163l0.217-.151a2.928,2.928,0,0,0,.976-3.455c-0.267-.7-2.851-6.176-3.162-6.782A2.5,2.5,0,0,0,15.219,5h0Z"/>
  <text id="_2" data-name="2" class="cls-2" x="33.149" y="22.442">2</text>
</svg>
