<svg id="WebSite" xmlns="http://www.w3.org/2000/svg" width="50" height="50" viewBox="0 0 50 50">
  <defs>
    <style>
      .cls-1 {
        fill: #393939;
        fill-rule: evenodd;
      }
    </style>
  </defs>
  <path class="cls-1" d="M36.941,24h8.034a19.861,19.861,0,0,0-2.107-8h-7.15A33.091,33.091,0,0,1,36.941,24ZM5.025,25a19.983,19.983,0,0,0,19,19.95V5.05A19.983,19.983,0,0,0,5.025,25Zm36.7-11A20.028,20.028,0,0,0,30.782,5.85a31.494,31.494,0,0,1,4.3,8.15h6.64Zm-8.765,0A29.334,29.334,0,0,0,27.7,5.2c-0.55-.074-1.108-0.12-1.672-0.148V14h6.93Zm3.985,12a33.154,33.154,0,0,1-.959,7H43.35a19.891,19.891,0,0,0,1.625-7H36.941Zm-3.3-10H26.025v8h8.926A31,31,0,0,0,33.64,16ZM30.782,44.15A20.026,20.026,0,0,0,42.328,35H35.413A31.572,31.572,0,0,1,30.782,44.15ZM26.025,35v9.95c0.564-.028,1.121-0.075,1.672-0.148A29.42,29.42,0,0,0,33.324,35h-7.3Zm8.926-9H26.025v7h7.9A31.05,31.05,0,0,0,34.952,26Z"/>
</svg>
