<svg id="WebSite" xmlns="http://www.w3.org/2000/svg" width="50" height="50" viewBox="0 0 50 50">
  <defs>
    <style>
      .cls-1 {
        fill: #393939;
        fill-rule: evenodd;
      }
    </style>
  </defs>
  <path class="cls-1" d="M5.207,27.724c0.057,0.416.107,0.834,0.189,1.242,0.06,0.3.145,0.582,0.218,0.874,0.084,0.337.158,0.678,0.259,1.008s0.225,0.643.342,0.964c0.1,0.278.192,0.562,0.305,0.834C6.667,33,6.836,33.336,7,33.677c0.109,0.225.209,0.457,0.327,0.678,0.2,0.37.415,0.725,0.633,1.08,0.108,0.176.208,0.356,0.321,0.528,0.251,0.381.523,0.748,0.8,1.11,0.1,0.13.191,0.265,0.293,0.392,0.309,0.386.636,0.754,0.972,1.116,0.083,0.09.162,0.183,0.246,0.271,0.367,0.38.752,0.744,1.148,1.094,0.064,0.057.125,0.116,0.189,0.172q0.638,0.55,1.322,1.045c0.042,0.03.082,0.063,0.124,0.093q0.72,0.514,1.487.965l0.063,0.039q0.8,0.464,1.636.856l0.009,0A19.944,19.944,0,0,0,24,44.949c0.335,0.017.665,0.051,1,.051s0.67-.034,1.005-0.051c0.561-.028,1.116-0.074,1.663-0.147a19.973,19.973,0,0,0,3.087-.652h0c0.582-.175,1.15-0.379,1.708-0.6,0.035-.015.072-0.025,0.107-0.04,0.543-.223,1.072-0.473,1.589-0.741,0.044-.023.091-0.042,0.136-0.065,0.518-.273,1.019-0.571,1.508-0.887,0.038-.024.078-0.046,0.116-0.071,0.5-.327.983-0.678,1.45-1.047,0.021-.017.044-0.032,0.066-0.05q0.721-.574,1.386-1.213l0.017-.016A20.14,20.14,0,0,0,42.3,35a19.821,19.821,0,0,0,1.023-2c0.2-.464.379-0.941,0.546-1.423,0.033-.094.071-0.186,0.1-0.28,0.167-.508.311-1.027,0.437-1.553,0.014-.055.03-0.11,0.042-0.166q0.2-.849.32-1.724c0-.009,0-0.018,0-0.027q0.125-.9.172-1.826h0c0.017-.334.05-0.663,0.05-1s-0.034-.666-0.05-1h0a20.073,20.073,0,0,0-.643-4.146c0-.011-0.006-0.023-0.009-0.034A19.813,19.813,0,0,0,43.68,17.9c-0.006-.016-0.012-0.033-0.018-0.049A19.739,19.739,0,0,0,42.843,16,19.943,19.943,0,0,0,41.7,14h0c-0.246-.372-0.513-0.727-0.783-1.081-0.1-.128-0.189-0.262-0.29-0.388-0.253-.317-0.524-0.62-0.8-0.92-0.134-.148-0.264-0.3-0.4-0.443-0.269-.281-0.551-0.549-0.836-0.814-0.158-.147-0.315-0.293-0.477-0.434-0.288-.251-0.585-0.491-0.887-0.725-0.175-.136-0.352-0.268-0.531-0.4-0.309-.223-0.623-0.44-0.945-0.646-0.185-.118-0.374-0.23-0.562-0.342-0.334-.2-0.67-0.392-1.016-0.571-0.183-.1-0.373-0.18-0.559-0.27-0.365-.175-0.731-0.348-1.108-0.5-0.16-.065-0.325-0.118-0.488-0.178-0.415-.156-0.831-0.311-1.258-0.44h0A19.966,19.966,0,0,0,27.669,5.2c-0.548-.073-1.1-0.119-1.663-0.147C25.67,5.034,25.339,5,25,5s-0.669.034-1,.051a19.943,19.943,0,0,0-7.424,1.831l-0.009,0q-0.84.391-1.636,0.856l-0.063.039q-0.766.45-1.487,0.965c-0.042.03-.083,0.062-0.124,0.093q-0.683.5-1.323,1.045c-0.064.055-.125,0.115-0.188,0.171-0.4.351-.781,0.714-1.149,1.095-0.085.088-.164,0.182-0.247,0.272-0.336.361-.664,0.73-0.972,1.115-0.1.128-.195,0.262-0.293,0.392-0.276.362-.547,0.728-0.8,1.109-0.113.173-.214,0.354-0.322,0.53-0.218.354-.436,0.709-0.633,1.078C7.21,15.867,7.11,16.1,7,16.324c-0.165.341-.334,0.679-0.48,1.03-0.113.273-.2,0.557-0.306,0.835-0.116.32-.241,0.636-0.341,0.963s-0.175.67-.259,1.007c-0.073.291-.158,0.578-0.218,0.875-0.082.407-.133,0.825-0.189,1.24-0.032.238-.081,0.471-0.105,0.711C5.035,23.649,5,24.32,5,25s0.035,1.351.1,2.014C5.126,27.254,5.174,27.486,5.207,27.724ZM32.631,41.279A31.831,31.831,0,0,0,35.388,35h4.569A18.1,18.1,0,0,1,32.631,41.279ZM41.1,33H35.957a33.147,33.147,0,0,0,.959-7h6.034A17.841,17.841,0,0,1,41.1,33Zm1.849-9H36.915a33.1,33.1,0,0,0-1.222-8h4.872A17.851,17.851,0,0,1,42.949,24ZM39.216,14H35.055a31.742,31.742,0,0,0-2.424-5.279A18.077,18.077,0,0,1,39.216,14ZM26,7.051a17.9,17.9,0,0,1,3.548.554A29.539,29.539,0,0,1,32.93,14H26V7.051ZM26,16h7.614a31,31,0,0,1,1.312,8H26V16Zm0,10h8.926A31.05,31.05,0,0,1,33.9,33H26V26Zm0,9h7.3a29.621,29.621,0,0,1-3.751,7.4A17.893,17.893,0,0,1,26,42.949V35ZM24,7.051v35.9A17.976,17.976,0,0,1,24,7.051Z"/>
</svg>
