<svg xmlns="http://www.w3.org/2000/svg" width="50" height="50" viewBox="0 0 50 50">
  <defs>
    <style>
      .cls-1 {
        fill: #596278;
        fill-rule: evenodd;
      }
    </style>
  </defs>
  <path class="cls-1" d="M24.951,38H3.994V12H36l6,6v3a1,1,0,0,0,2,0V17l-7-7H2V40H24.951A1,1,0,0,0,24.951,38Zm22.661,4.293-5.1-5.106A7,7,0,1,0,41.1,38.6l5.1,5.106A1,1,0,0,0,47.612,42.293ZM31.937,33a4.99,4.99,0,1,1,8.952,3.006,0.98,0.98,0,0,0-.962.964,4.935,4.935,0,0,1-3,1.03A5,5,0,0,1,31.937,33ZM22.955,18a1,1,0,0,0,0,2h9.98a1,1,0,0,0,0-2h-9.98Zm2,6H10.98a1,1,0,0,0,0,2H24.951A1,1,0,0,0,24.951,24Zm-2,8a1,1,0,0,0,0-2H10.98a1,1,0,0,0,0,2H22.955Z"/>
</svg>
