<svg xmlns="http://www.w3.org/2000/svg" viewBox="0 0 162.5 75"><defs><style>.cls-1{fill:#2f4bc8;fill-rule:evenodd;}</style></defs><title>V10@1x</title><g id="Layer_2" data-name="Layer 2"><g id="Layer_1-2" data-name="Layer 1"><path class="cls-1" d="M132.82,0c-16.23,0-29.69,13.51-29.69,30.09V44.91c0,16.58,13.46,30.09,29.69,30.09S162.5,61.49,162.5,44.91V30.09C162.5,13.51,149,0,132.82,0Zm0,62.26c-10.1,0-17.27-8.1-17.27-18.15V29.48c0-10,7.17-18.16,17.27-18.16s17.25,8.11,17.25,18.16V44.11C150.07,54.16,142.9,62.27,132.82,62.26Z"/><polygon class="cls-1" points="70.31 21.83 70.31 33.19 79.16 30.92 79.16 73.44 92.19 73.44 92.19 14.06 70.31 21.83"/><path class="cls-1" d="M0,46.1,9.25,62.64c8.26,14.81,23.52,14,31.32,0L62.5,23.44l-.73.25-16.56,6,0,.07L30,56.79c-3.43,6.2-6.85,6.15-10.25,0l-8.3-14.85Z"/></g></g></svg>