<svg xmlns="http://www.w3.org/2000/svg" viewBox="0 0 225 225"><defs><style>.cls-1{fill:#304cc0;}.cls-2{fill:#fff;}</style></defs><title>Clientes@1x</title><g id="Layer_2" data-name="Layer 2"><g id="Layer_1-2" data-name="Layer 1"><circle class="cls-1" cx="112.5" cy="112.5" r="112.5"/><path class="cls-2" d="M156.45,79.1H144.14V68.55A17.58,17.58,0,0,0,126.56,51H66.8A17.58,17.58,0,0,0,49.22,68.55v59.77A17.58,17.58,0,0,0,66.8,145.9H79.1v10.55A17.58,17.58,0,0,0,96.68,174h59.77A17.57,17.57,0,0,0,174,156.45V96.68A17.58,17.58,0,0,0,156.45,79.1ZM66.8,133.59a5.28,5.28,0,0,1-5.28-5.27V68.55a5.29,5.29,0,0,1,5.28-5.27h59.76a5.29,5.29,0,0,1,5.28,5.27V79.1H96.68A17.58,17.58,0,0,0,79.1,96.68v36.91Zm24.61,0V96.68a5.27,5.27,0,0,1,5.27-5.27h59.77a5.28,5.28,0,0,1,5.27,5.27V152.9L140.82,138a22,22,0,1,0-28.21.28L91.41,154.4V133.59ZM126.56,131a9.67,9.67,0,1,1,9.67-9.67A9.68,9.68,0,0,1,126.56,131Zm0,12.3.46,0,25.87,18.48H102.11l24.24-18.47Z"/></g></g></svg>