<svg xmlns="http://www.w3.org/2000/svg" viewBox="0 0 225 225"><defs><style>.cls-1{fill:#348bdd;}.cls-2{fill:#fff;}.cls-3{opacity:0.3;}</style></defs><title>Rh_pr@1</title><g id="Layer_2" data-name="Layer 2"><g id="Layer_1-2" data-name="Layer 1"><circle class="cls-1" cx="112.5" cy="112.5" r="112.5"/><path class="cls-2" d="M112.08,53.17a11.41,11.41,0,0,1,7.71,20s-4.94,2.4-7.4,2.43-7.46-2.22-7.46-2.22a11.41,11.41,0,0,1,7.15-20.19m.5,35.22,44,16.35a6.45,6.45,0,0,1,3.08,2.28,6.16,6.16,0,0,1-4.94,9.72,6.08,6.08,0,0,1-2.22-.39L148.92,115,135,109.86a5.27,5.27,0,0,0-6.63,7.13l6.16,13.49,12.2,26.69a6.44,6.44,0,0,1-2.88,8.41,6.12,6.12,0,0,1-4.32.33,6.34,6.34,0,0,1-4-3.53l-11.89-26L116.24,120a3.51,3.51,0,0,0-6.43.09l-7,16.55L91.66,163a6.4,6.4,0,0,1-3.86,3.66,6.09,6.09,0,0,1-4.35-.22,6.36,6.36,0,0,1-3.09-8.32l11.44-27,5.78-13.66a5.27,5.27,0,0,0-6.83-7L77,116l-3.54,1.43a6.06,6.06,0,0,1-2.21.45A6.17,6.17,0,0,1,66,108.34a6.52,6.52,0,0,1,3-2.36l43.53-17.59m-.66-46.64A22.83,22.83,0,0,0,97.6,82.12l-33,13.35a17.58,17.58,0,1,0,13.17,32.59l3.53-1.43-11.55,27.3a17.59,17.59,0,0,0,9.34,23,17.57,17.57,0,0,0,23-9.34l11.22-26.51,12,26.18a17.58,17.58,0,1,0,32-14.61l-12.32-27,3.58,1.33a17.57,17.57,0,1,0,12.24-32.95L127.37,81.7a22.83,22.83,0,0,0-15.45-39.95Z"/><circle class="cls-3" cx="112.5" cy="112.5" r="112.5"/></g></g></svg>