<svg xmlns="http://www.w3.org/2000/svg" viewBox="0 0 225 225"><defs><style>.cls-1{fill:#348bdd;}.cls-2{fill:#fff;}</style></defs><title>Rh@1x</title><g id="Layer_2" data-name="Layer 2"><g id="Layer_1-2" data-name="Layer 1"><circle class="cls-1" cx="112.5" cy="112.5" r="112.5"/><path class="cls-2" d="M112.92,53.17a11.41,11.41,0,0,1,7.43,20.08s-5,2.34-7.43,2.34-7.44-2.34-7.44-2.34a11.41,11.41,0,0,1,7.44-20.08m0,35.23,43.76,17a6.4,6.4,0,0,1,3,2.32,6.15,6.15,0,0,1-7.29,9.23l-3.56-1.38-13.83-5.36a5.27,5.27,0,0,0-6.73,7l6,13.57,11.81,26.86a6.42,6.42,0,0,1-3,8.36,6.1,6.1,0,0,1-4.33.28,6.35,6.35,0,0,1-3.9-3.59l-11.52-26.18-7.24-16.45a3.51,3.51,0,0,0-6.43,0l-7.24,16.45L91,162.68A6.38,6.38,0,0,1,87,166.29a6.09,6.09,0,0,1-4.35-.29,6.35,6.35,0,0,1-3-8.36l11.82-26.85,6-13.57a5.27,5.27,0,0,0-6.73-7L77,115.54l-3.56,1.38a6.11,6.11,0,0,1-2.22.42,6.16,6.16,0,0,1-5.07-9.65,6.45,6.45,0,0,1,3.05-2.32l43.77-17m0-46.65A22.83,22.83,0,0,0,98,81.91L64.81,94.79a17.58,17.58,0,1,0,12.71,32.78l3.56-1.38L69.14,153.32a17.58,17.58,0,1,0,32.18,14.16l11.6-26.35,11.59,26.35a17.58,17.58,0,1,0,32.18-14.16l-11.94-27.13,3.56,1.38A17.58,17.58,0,0,0,161,94.79L127.8,81.91a22.83,22.83,0,0,0-14.88-40.16Z"/></g></g></svg>