<svg id="Calendar_32x30" xmlns="http://www.w3.org/2000/svg" width="36" height="36" viewBox="7 7 36 36">
  <defs>
    <style>
      .cls-1 {
        fill: #959595;
        fill-rule: evenodd;
      }
    </style>
  </defs>
  <path class="cls-1" d="M13,16a2.006,2.006,0,0,0-2,2V36a2.006,2.006,0,0,0,2,2H37a2.006,2.006,0,0,0,2-2V18a2.006,2.006,0,0,0-2-2H13ZM37,34a2.006,2.006,0,0,1-2,2H15a2.006,2.006,0,0,1-2-2V21a2.006,2.006,0,0,1,2-2H35a2.006,2.006,0,0,1,2,2V34ZM18,16c0,0.917-.674,1-1.5,1h0c-0.825,0-1.5-.083-1.5-1V13.667A1.6,1.6,0,0,1,16.5,12h0A1.6,1.6,0,0,1,18,13.667V16Zm2,16a1,1,0,0,1-1,1H17a1,1,0,0,1-1-1V30a1,1,0,0,1,1-1h2a1,1,0,0,1,1,1v2Zm7,0a1,1,0,0,1-1,1H24a1,1,0,0,1-1-1V30a1,1,0,0,1,1-1h2a1,1,0,0,1,1,1v2Zm-7-7a1,1,0,0,1-1,1H17a1,1,0,0,1-1-1V23a1,1,0,0,1,1-1h2a1,1,0,0,1,1,1v2Zm7,0a1,1,0,0,1-1,1H24a1,1,0,0,1-1-1V23a1,1,0,0,1,1-1h2a1,1,0,0,1,1,1v2Zm7,7a1,1,0,0,1-1,1H31a1,1,0,0,1-1-1V30a1,1,0,0,1,1-1h2a1,1,0,0,1,1,1v2Zm0-7a1,1,0,0,1-1,1H31a1,1,0,0,1-1-1V23a1,1,0,0,1,1-1h2a1,1,0,0,1,1,1v2Zm1-9c0,0.917-.674,1-1.5,1h0c-0.825,0-1.5-.083-1.5-1V13.667A1.6,1.6,0,0,1,33.5,12h0A1.6,1.6,0,0,1,35,13.667V16Z"/>
</svg>
