<svg id="_2_Gráfico" data-name="2_Gráfico" xmlns="http://www.w3.org/2000/svg" width="50" height="50" viewBox="0 0 50 50">
  <defs>
    <style>
      .cls-1 {
        fill: #596278;
        fill-rule: evenodd;
      }
    </style>
  </defs>
  <g id="_1_48x48" data-name="1_48x48">
    <path id="_50x50" data-name="50x50" class="cls-1" d="M1,1V7H5l8,9a12.986,12.986,0,0,0,8,17.361V49l8-4V33.363A12.981,12.981,0,0,0,37,16l8-9h4V1H1ZM14,21a10.983,10.983,0,0,1,17.324-8.984L17.15,28.691A10.951,10.951,0,0,1,14,21ZM27,33.83V44l-4,2V33.83l-0.008,0a11.818,11.818,0,0,0,4.016,0ZM25,32a10.925,10.925,0,0,1-6.326-2.016L32.85,13.309A10.99,10.99,0,0,1,25,32ZM47,5H44l-8.059,9.006a12.967,12.967,0,0,0-21.893.02l0.012-.02L6,5H3V3H47V5Z"/>
  </g>
</svg>
